<svg version="1.1" id="Layer_1" xmlns="http://www.w3.org/2000/svg" xmlns:xlink="http://www.w3.org/1999/xlink" x="0px" y="0px"
	 width="100%" viewBox="0 0 420 420" enable-background="new 0 0 420 420" xml:space="preserve">
<path fill="#F0F0F0" opacity="1.000000" stroke="none" 
	d="
M249.000000,421.000000 
	C166.000015,421.000000 83.500023,421.000000 1.000022,421.000000 
	C1.000015,281.000031 1.000015,141.000046 1.000007,1.000060 
	C140.999954,1.000040 280.999908,1.000040 420.999908,1.000020 
	C420.999939,140.999939 420.999939,280.999878 420.999969,420.999908 
	C363.833344,421.000000 306.666656,421.000000 249.000000,421.000000 
M191.503677,387.000000 
	C209.909546,387.000000 228.315430,387.000000 247.265076,387.000000 
	C247.265076,339.850891 247.265076,293.614624 247.265076,247.369415 
	C270.395142,247.369415 292.964447,247.369415 316.091675,247.369415 
	C316.091675,270.639191 316.091675,293.547211 316.091675,316.539215 
	C340.010071,316.539215 363.363800,316.539215 386.584808,316.539215 
	C386.584808,269.509979 386.584808,222.942673 386.584808,175.819672 
	C339.936310,175.819672 293.700134,175.819672 246.910797,175.819672 
	C246.910797,129.028244 246.910797,82.791931 246.910797,36.458099 
	C222.995438,36.458099 199.641754,36.458099 175.733826,36.458099 
	C175.733826,83.150169 175.733826,129.386475 175.733826,176.175034 
	C128.941681,176.175034 82.705528,176.175034 36.321342,176.175034 
	C36.321342,223.301163 36.321342,269.867859 36.321342,316.544586 
	C59.999073,316.544586 83.352715,316.544586 107.263702,316.544586 
	C107.263702,293.185974 107.263702,270.277954 107.263702,247.370148 
	C130.396774,247.370148 152.966034,247.370148 176.090302,247.370148 
	C176.090302,293.972839 176.090302,340.209137 176.090302,387.000000 
	C181.259872,387.000000 185.882629,387.000000 191.503677,387.000000 
M41.640694,106.999985 
	C63.247242,106.999985 84.853790,106.999985 106.531006,106.999985 
	C106.531006,82.981262 106.531006,59.628036 106.531006,36.426685 
	C82.822655,36.426685 59.585571,36.426685 36.208946,36.426685 
	C36.208946,59.972420 36.208946,83.091148 36.208946,106.630356 
	C37.812614,106.762856 39.246319,106.881317 41.640694,106.999985 
M360.500000,36.000000 
	C345.759277,36.000000 331.018555,36.000000 316.412109,36.000000 
	C316.412109,60.150383 316.412109,83.385948 316.412109,106.632111 
	C340.060822,106.632111 363.295715,106.632111 386.676331,106.632111 
	C386.676331,83.028679 386.676331,59.794296 386.676331,36.000000 
	C378.076355,36.000000 369.788177,36.000000 360.500000,36.000000 
z"/>
<path fill="#DBD876" opacity="1.000000" stroke="none" 
	d="
M191.004532,387.000000 
	C185.882629,387.000000 181.259872,387.000000 176.090302,387.000000 
	C176.090302,340.209137 176.090302,293.972839 176.090302,247.370148 
	C152.966034,247.370148 130.396774,247.370148 107.263702,247.370148 
	C107.263702,270.277954 107.263702,293.185974 107.263702,316.544586 
	C83.352715,316.544586 59.999073,316.544586 36.321342,316.544586 
	C36.321342,269.867859 36.321342,223.301163 36.321342,176.175034 
	C82.705528,176.175034 128.941681,176.175034 175.733826,176.175034 
	C175.733826,129.386475 175.733826,83.150169 175.733826,36.458099 
	C199.641754,36.458099 222.995438,36.458099 246.910797,36.458099 
	C246.910797,82.791931 246.910797,129.028244 246.910797,175.819672 
	C293.700134,175.819672 339.936310,175.819672 386.584808,175.819672 
	C386.584808,222.942673 386.584808,269.509979 386.584808,316.539215 
	C363.363800,316.539215 340.010071,316.539215 316.091675,316.539215 
	C316.091675,293.547211 316.091675,270.639191 316.091675,247.369415 
	C292.964447,247.369415 270.395142,247.369415 247.265076,247.369415 
	C247.265076,293.614624 247.265076,339.850891 247.265076,387.000000 
	C228.315430,387.000000 209.909546,387.000000 191.004532,387.000000 
z"/>
<path fill="#DBD876" opacity="1.000000" stroke="none" 
	d="
M41.160358,106.999878 
	C39.246319,106.881317 37.812614,106.762856 36.208946,106.630356 
	C36.208946,83.091148 36.208946,59.972420 36.208946,36.426685 
	C59.585571,36.426685 82.822655,36.426685 106.531006,36.426685 
	C106.531006,59.628036 106.531006,82.981262 106.531006,106.999985 
	C84.853790,106.999985 63.247242,106.999985 41.160358,106.999878 
z"/>
<path fill="#DBD876" opacity="1.000000" stroke="none" 
	d="
M361.000000,36.000000 
	C369.788177,36.000000 378.076355,36.000000 386.676331,36.000000 
	C386.676331,59.794296 386.676331,83.028679 386.676331,106.632111 
	C363.295715,106.632111 340.060822,106.632111 316.412109,106.632111 
	C316.412109,83.385948 316.412109,60.150383 316.412109,36.000000 
	C331.018555,36.000000 345.759277,36.000000 361.000000,36.000000 
z"/>
</svg>